<?xml version="1.0" encoding="UTF-8" standalone="no"?>
<!-- Created with Inkscape (http://www.inkscape.org/) -->

<svg
   xmlns:dc="http://purl.org/dc/elements/1.1/"
   xmlns:cc="http://creativecommons.org/ns#"
   xmlns:rdf="http://www.w3.org/1999/02/22-rdf-syntax-ns#"
   xmlns:svg="http://www.w3.org/2000/svg"
   xmlns="http://www.w3.org/2000/svg"
   xmlns:sodipodi="http://sodipodi.sourceforge.net/DTD/sodipodi-0.dtd"
   xmlns:inkscape="http://www.inkscape.org/namespaces/inkscape"
   width="55.902325mm"
   height="14.10278mm"
   viewBox="0 0 55.902325 14.10278"
   version="1.1"
   id="svg8"
   inkscape:version="0.92.4 (5da689c313, 2019-01-14)"
   sodipodi:docname="CaseChanger-logo.svg">
  <defs
     id="defs2" />
  <sodipodi:namedview
     id="base"
     pagecolor="#ffffff"
     bordercolor="#666666"
     borderopacity="1.0"
     inkscape:pageopacity="0.0"
     inkscape:pageshadow="2"
     inkscape:zoom="0.98994949"
     inkscape:cx="125.10776"
     inkscape:cy="88.722784"
     inkscape:document-units="mm"
     inkscape:current-layer="layer1"
     showgrid="false"
     showguides="true"
     inkscape:guide-bbox="true"
     inkscape:window-width="1366"
     inkscape:window-height="745"
     inkscape:window-x="-8"
     inkscape:window-y="-8"
     inkscape:window-maximized="1">
    <sodipodi:guide
       position="54.038495,3.7084495"
       orientation="1,0"
       id="guide18"
       inkscape:locked="false" />
  </sodipodi:namedview>
  <metadata
     id="metadata5">
    <rdf:RDF>
      <cc:Work
         rdf:about="">
        <dc:format>image/svg+xml</dc:format>
        <dc:type
           rdf:resource="http://purl.org/dc/dcmitype/StillImage" />
        <dc:title></dc:title>
      </cc:Work>
    </rdf:RDF>
  </metadata>
  <g
     inkscape:label="Camada 1"
     inkscape:groupmode="layer"
     id="layer1"
     transform="translate(-59.921325,-112.16965)">
    <g
       aria-label="Case Changer"
       style="font-style:normal;font-variant:normal;font-weight:normal;font-stretch:normal;font-size:10.58333302px;line-height:1.25;font-family:Lobster;-inkscape-font-specification:Lobster;letter-spacing:0px;word-spacing:0px;fill:#387925;fill-opacity:1;stroke:none;stroke-width:0.26458332"
       id="text12">
      <path
         d="m 62.239075,120.27648 q -1.195917,0 -1.756833,-0.60325 -0.560917,-0.60325 -0.560917,-2.00025 0,-1.11125 0.370417,-2.39183 0.381,-1.28059 1.206499,-2.19075 0.836084,-0.92075 2.116667,-0.92075 0.79375,0 1.280583,0.34925 0.486834,0.34925 0.486834,1.06891 0,0.45509 -0.179917,0.71967 -0.179917,0.254 -0.560917,0.254 -0.381,0 -0.60325,-0.27517 0.1905,-0.0953 0.338667,-0.381 0.148167,-0.28575 0.148167,-0.59266 0,-0.28575 -0.15875,-0.46567 -0.148167,-0.17992 -0.486834,-0.17992 -0.560916,0 -1.068916,0.77259 -0.508,0.762 -0.8255,1.92616 -0.306917,1.16417 -0.306917,2.24367 0,0.80433 0.275167,1.22767 0.275166,0.42333 0.994833,0.42333 0.624417,0 1.153583,-0.27517 0.529167,-0.27516 0.910167,-0.78316 l 0.243417,0.10583 q -0.264584,0.66675 -0.783167,1.11125 -0.518583,0.4445 -1.11125,0.65617 -0.592667,0.20108 -1.121833,0.20108 z"
         style="stroke-width:0.26458332"
         id="path4531"
         inkscape:connector-curvature="0" />
      <path
         d="m 66.240567,120.17065 q -0.60325,0 -1.005417,-0.41275 -0.402167,-0.41275 -0.402167,-1.29117 0,-0.78317 0.306917,-1.64042 0.3175,-0.86783 0.931333,-1.4605 0.624417,-0.60325 1.481667,-0.60325 0.433917,0 0.645583,0.14817 0.211667,0.14817 0.211667,0.39158 v 0.0741 l 0.116417,-0.56092 h 1.524 l -0.762,3.59833 q -0.04233,0.15875 -0.04233,0.33867 0,0.45508 0.433917,0.45508 0.296333,0 0.508,-0.27516 0.22225,-0.27517 0.34925,-0.71967 h 0.4445 q -0.391583,1.143 -0.973667,1.55575 -0.5715,0.40217 -1.153583,0.40217 -0.4445,0 -0.719667,-0.24342 -0.264583,-0.254 -0.3175,-0.73025 -0.306916,0.43392 -0.687916,0.70908 -0.370417,0.26459 -0.889,0.26459 z m 0.687916,-1.02659 q 0.264584,0 0.518584,-0.24341 0.264583,-0.254 0.359833,-0.68792 l 0.508,-2.39183 q 0,-0.13759 -0.105833,-0.26459 -0.105834,-0.13758 -0.328084,-0.13758 -0.423333,0 -0.762,0.49742 -0.338666,0.48683 -0.529166,1.18533 -0.1905,0.68792 -0.1905,1.21708 0,0.52917 0.148166,0.67734 0.15875,0.14816 0.381,0.14816 z"
         style="stroke-width:0.26458332"
         id="path4533"
         inkscape:connector-curvature="0" />
      <path
         d="m 71.737451,120.17065 q -0.508,0 -0.85725,-0.1905 -0.34925,-0.20109 -0.518584,-0.508 -0.169333,-0.3175 -0.169333,-0.65617 0,-0.34925 0.169333,-0.60325 0.15875,-0.26458 0.391584,-0.381 0.41275,-0.74083 0.719666,-1.49225 0.306917,-0.762 0.582084,-1.64042 l 1.566333,-0.21166 q 0.05292,1.35466 0.179916,2.93158 0.05292,0.635 0.05292,0.92075 0,0.24342 -0.04233,0.40217 0.497416,-0.28575 0.762,-0.52917 h 0.4445 q -0.677334,0.78317 -1.61925,1.32292 -0.306917,0.32808 -0.762,0.48683 -0.4445,0.14817 -0.899583,0.14817 z m -0.338667,-0.83609 q 0.391583,0 0.656167,-0.23283 0.264583,-0.23283 0.264583,-0.75142 0,-0.3175 -0.0635,-0.889 -0.105834,-1.2065 -0.137584,-1.61925 -0.253999,0.83609 -0.857249,2.00025 0.243416,0.127 0.243416,0.37042 0,0.20108 -0.137583,0.35983 -0.127,0.15875 -0.328083,0.15875 -0.22225,0 -0.28575,-0.13758 0,0.381 0.148166,0.56092 0.15875,0.17991 0.497417,0.17991 z"
         style="stroke-width:0.26458332"
         id="path4535"
         inkscape:connector-curvature="0" />
      <path
         d="m 76.074632,120.17065 q -0.772583,0 -1.2065,-0.40217 -0.433916,-0.41275 -0.433916,-1.28058 0,-0.73025 0.28575,-1.60867 0.28575,-0.87842 0.931333,-1.51342 0.645583,-0.64558 1.640416,-0.64558 1.164167,0 1.164167,1.016 0,0.59267 -0.338667,1.09008 -0.338666,0.49742 -0.899583,0.80434 -0.560917,0.29633 -1.195917,0.33866 -0.02117,0.23284 -0.02117,0.3175 0,0.87842 0.656166,0.87842 0.296334,0 0.635,-0.15875 0.338667,-0.15875 0.613834,-0.40217 -0.28575,1.56634 -1.830917,1.56634 z m 0.02117,-2.70934 q 0.402166,-0.0106 0.751416,-0.26458 0.359834,-0.254 0.5715,-0.64558 0.22225,-0.40217 0.22225,-0.83609 0,-0.43391 -0.264583,-0.43391 -0.370417,0 -0.740833,0.67733 -0.359834,0.66675 -0.53975,1.50283 z"
         style="stroke-width:0.26458332"
         id="path4537"
         inkscape:connector-curvature="0" />
      <path
         d="m 83.261047,120.27648 q -1.195916,0 -1.756833,-0.60325 -0.560916,-0.60325 -0.560916,-2.00025 0,-1.11125 0.370416,-2.39183 0.381,-1.28059 1.2065,-2.19075 0.836083,-0.92075 2.116667,-0.92075 0.79375,0 1.280583,0.34925 0.486833,0.34925 0.486833,1.06891 0,0.45509 -0.179916,0.71967 -0.179917,0.254 -0.560917,0.254 -0.381,0 -0.60325,-0.27517 0.1905,-0.0953 0.338667,-0.381 0.148166,-0.28575 0.148166,-0.59266 0,-0.28575 -0.15875,-0.46567 -0.148166,-0.17992 -0.486833,-0.17992 -0.560917,0 -1.068917,0.77259 -0.508,0.762 -0.8255,1.92616 -0.306916,1.16417 -0.306916,2.24367 0,0.80433 0.275166,1.22767 0.275167,0.42333 0.994834,0.42333 0.624416,0 1.153583,-0.27517 0.529167,-0.27516 0.910167,-0.78316 l 0.243416,0.10583 q -0.264583,0.66675 -0.783166,1.11125 -0.518584,0.4445 -1.11125,0.65617 -0.592667,0.20108 -1.121834,0.20108 z"
         style="stroke-width:0.26458332"
         id="path4539"
         inkscape:connector-curvature="0" />
      <path
         d="m 89.813122,120.17065 q -0.645584,0 -0.9525,-0.33867 -0.296334,-0.34925 -0.296334,-0.85725 0,-0.22225 0.05292,-0.49742 0.05292,-0.28575 0.105833,-0.55033 0.0635,-0.26458 0.08467,-0.33867 0.08467,-0.37041 0.15875,-0.73025 0.07408,-0.35983 0.07408,-0.58208 0,-0.53975 -0.381,-0.53975 -0.275166,0 -0.486833,0.27517 -0.211667,0.26458 -0.338667,0.6985 l -0.719666,3.39725 h -1.524 l 1.534583,-7.19667 1.566333,-0.21167 -0.5715,2.667 q 0.529167,-0.59266 1.23825,-0.59266 0.53975,0 0.85725,0.29633 0.3175,0.29633 0.3175,0.89958 0,0.30692 -0.07408,0.68792 -0.07408,0.37042 -0.211667,0.91017 -0.08467,0.32808 -0.15875,0.64558 -0.0635,0.30692 -0.0635,0.48683 0,0.21167 0.09525,0.32809 0.09525,0.11641 0.328084,0.11641 0.3175,0 0.508,-0.22225 0.1905,-0.23283 0.381,-0.70908 h 0.4445 q -0.391584,1.16417 -0.910167,1.56633 -0.508,0.39159 -1.058333,0.39159 z"
         style="stroke-width:0.26458332"
         id="path4541"
         inkscape:connector-curvature="0" />
      <path
         d="m 92.616216,120.17065 q -0.60325,0 -1.005416,-0.41275 -0.402167,-0.41275 -0.402167,-1.29117 0,-0.78317 0.306917,-1.64042 0.3175,-0.86783 0.931333,-1.4605 0.624416,-0.60325 1.481666,-0.60325 0.433917,0 0.645584,0.14817 0.211666,0.14817 0.211666,0.39158 v 0.0741 l 0.116417,-0.56092 h 1.524 l -0.762,3.59833 q -0.04233,0.15875 -0.04233,0.33867 0,0.45508 0.433916,0.45508 0.296334,0 0.508,-0.27516 0.22225,-0.27517 0.34925,-0.71967 h 0.4445 q -0.391583,1.143 -0.973666,1.55575 -0.5715,0.40217 -1.153584,0.40217 -0.4445,0 -0.719666,-0.24342 -0.264584,-0.254 -0.3175,-0.73025 -0.306917,0.43392 -0.687917,0.70908 -0.370417,0.26459 -0.889,0.26459 z m 0.687917,-1.02659 q 0.264583,0 0.518583,-0.24341 0.264583,-0.254 0.359833,-0.68792 l 0.508,-2.39183 q 0,-0.13759 -0.105833,-0.26459 -0.105833,-0.13758 -0.328083,-0.13758 -0.423334,0 -0.762,0.49742 -0.338667,0.48683 -0.529167,1.18533 -0.1905,0.68792 -0.1905,1.21708 0,0.52917 0.148167,0.67734 0.15875,0.14816 0.381,0.14816 z"
         style="stroke-width:0.26458332"
         id="path4543"
         inkscape:connector-curvature="0" />
      <path
         d="m 100.72718,120.17065 q -0.64558,0 -0.952496,-0.33867 -0.296333,-0.34925 -0.296333,-0.85725 0,-0.22225 0.05292,-0.49742 0.05292,-0.28575 0.105833,-0.55033 0.0635,-0.26458 0.08467,-0.33867 0.08467,-0.37041 0.15875,-0.73025 0.07408,-0.35983 0.07408,-0.58208 0,-0.53975 -0.381,-0.53975 -0.275167,0 -0.486833,0.27517 -0.211667,0.26458 -0.338667,0.6985 l -0.719667,3.39725 h -1.524 l 1.121834,-5.29167 h 1.524 l -0.116417,0.55033 q 0.529167,-0.59266 1.238246,-0.59266 0.53975,0 0.85725,0.29633 0.3175,0.29633 0.3175,0.89958 0,0.30692 -0.0741,0.68792 -0.0741,0.37042 -0.21167,0.91017 -0.0847,0.32808 -0.15875,0.64558 -0.0635,0.30692 -0.0635,0.48683 0,0.21167 0.0952,0.32809 0.0953,0.11641 0.32808,0.11641 0.3175,0 0.508,-0.22225 0.1905,-0.23283 0.381,-0.70908 h 0.4445 q -0.39158,1.16417 -0.91016,1.56633 -0.508,0.39159 -1.05834,0.39159 z"
         style="stroke-width:0.26458332"
         id="path4545"
         inkscape:connector-curvature="0" />
      <path
         d="m 104.13353,122.75298 q -0.508,0 -0.84667,-0.26458 -0.33866,-0.26459 -0.33866,-0.762 0,-0.60325 0.48683,-0.97367 0.48683,-0.35983 1.23825,-0.60325 l 0.127,-0.56092 q -0.53975,0.58209 -1.27,0.58209 -0.60325,0 -1.00542,-0.41275 -0.40216,-0.41275 -0.40216,-1.29117 0,-0.78317 0.30691,-1.64042 0.3175,-0.86783 0.93134,-1.4605 0.62441,-0.60325 1.48166,-0.60325 0.43392,0 0.64559,0.14817 0.21166,0.14817 0.21166,0.39158 v 0.0635 l 0.11642,-0.55033 h 1.524 l -1.04775,4.91067 q 0.508,-0.16934 0.81492,-0.508 0.30691,-0.33867 0.51858,-1.00542 h 0.4445 q -0.28575,0.94192 -0.77258,1.38642 -0.48684,0.43391 -1.10067,0.59266 l -0.15875,0.762 q -0.21167,1.02659 -0.73025,1.40759 -0.51858,0.39158 -1.17475,0.39158 z m 0.0847,-3.60892 q 0.24341,0 0.49741,-0.22225 0.254,-0.22225 0.34925,-0.60325 l 0.53975,-2.50825 q 0,-0.127 -0.10583,-0.254 -0.10583,-0.13758 -0.32808,-0.13758 -0.42334,0 -0.762,0.49742 -0.33867,0.48683 -0.52917,1.18533 -0.1905,0.68792 -0.1905,1.21708 0,0.52917 0.14817,0.67734 0.15875,0.14816 0.381,0.14816 z m -0.32809,2.78342 q 0.17992,0 0.34925,-0.24342 0.16934,-0.24341 0.26459,-0.6985 l 0.0635,-0.30691 q -1.03717,0.381 -1.03717,0.89958 0,0.13758 0.0952,0.24342 0.0953,0.10583 0.26458,0.10583 z"
         style="stroke-width:0.26458332"
         id="path4547"
         inkscape:connector-curvature="0" />
      <path
         d="m 109.14804,120.17065 q -0.78316,0 -1.21708,-0.40217 -0.43392,-0.41275 -0.43392,-1.28058 0,-0.73025 0.28575,-1.60867 0.28575,-0.87842 0.93134,-1.51342 0.64558,-0.64558 1.64041,-0.64558 1.16417,0 1.16417,1.016 0,0.59267 -0.33867,1.09008 -0.33866,0.49742 -0.89958,0.80434 -0.56092,0.29633 -1.19592,0.33866 -0.0212,0.3175 -0.0212,0.42334 0,0.51858 0.17991,0.70908 0.17992,0.17992 0.58209,0.17992 0.5715,0 0.97366,-0.26459 0.41275,-0.26458 0.89959,-0.80433 h 0.35983 q -1.17475,1.95792 -2.91042,1.95792 z m 0.0212,-2.70934 q 0.39158,-0.0212 0.74083,-0.27516 0.35984,-0.254 0.5715,-0.64559 0.22225,-0.39158 0.22225,-0.8255 0,-0.43391 -0.26458,-0.43391 -0.381,0 -0.75142,0.66675 -0.35983,0.66675 -0.51858,1.51341 z"
         style="stroke-width:0.26458332"
         id="path4549"
         inkscape:connector-curvature="0" />
      <path
         d="m 112.4264,114.81548 h 1.524 l -0.13759,0.65617 q 0.35984,-0.3175 0.64559,-0.48684 0.29633,-0.16933 0.635,-0.16933 0.33866,0 0.52916,0.23283 0.20109,0.23284 0.20109,0.56092 0,0.30692 -0.20109,0.53975 -0.20108,0.23283 -0.56091,0.23283 -0.23284,0 -0.3175,-0.10583 -0.0741,-0.11642 -0.11642,-0.32808 -0.0318,-0.13759 -0.0635,-0.20109 -0.0317,-0.0635 -0.11642,-0.0635 -0.22225,0 -0.381,0.0952 -0.14816,0.0847 -0.39158,0.30692 l -0.84667,4.02167 h -1.524 z"
         style="stroke-width:0.26458332"
         id="path4551"
         inkscape:connector-curvature="0" />
    </g>
    <g
       aria-label="By JPLeal"
       style="font-style:normal;font-variant:normal;font-weight:normal;font-stretch:normal;font-size:3.45497417px;line-height:1.25;font-family:Lobster;-inkscape-font-specification:Lobster;letter-spacing:0px;word-spacing:0px;fill:#000000;fill-opacity:1;stroke:none;stroke-width:0.08637436"
       id="text16">
      <path
         d="m 99.606331,124.33765 q 0.238393,0.0518 0.366227,0.2073 0.131292,0.15201 0.131292,0.39386 0,0.31095 -0.231486,0.48024 -0.228029,0.16584 -0.677175,0.16584 h -1.112502 v -2.41848 h 1.043402 q 0.404232,0 0.62535,0.16238 0.224574,0.16239 0.224574,0.45952 0,0.20038 -0.100194,0.34204 -0.09674,0.1382 -0.269488,0.2073 z m -1.267976,-0.96049 v 0.87757 h 0.770459 q 0.293673,0 0.452602,-0.11056 0.158929,-0.11402 0.158929,-0.32822 0,-0.21421 -0.158929,-0.32477 -0.158929,-0.11402 -0.452602,-0.11402 z m 0.853379,1.99698 q 0.324767,0 0.490606,-0.11056 0.165839,-0.11056 0.165839,-0.3455 0,-0.4526 -0.656445,-0.4526 h -0.853379 v 0.90866 z"
         style="font-style:normal;font-variant:normal;font-weight:normal;font-stretch:normal;font-family:Montserrat;-inkscape-font-specification:Montserrat;stroke-width:0.08637436"
         id="path4554"
         inkscape:connector-curvature="0" />
      <path
         d="m 102.16269,123.76758 -0.90866,2.03498 q -0.11056,0.25566 -0.25567,0.36277 -0.14511,0.1071 -0.34895,0.1071 -0.13129,0 -0.2453,-0.0415 -0.11402,-0.0415 -0.19694,-0.12438 l 0.11402,-0.18311 q 0.1382,0.1382 0.33167,0.1382 0.12438,0 0.21076,-0.0691 0.0898,-0.0691 0.16584,-0.23494 l 0.0795,-0.1762 -0.81192,-1.81386 h 0.25567 l 0.68408,1.54437 0.68409,-1.54437 z"
         style="font-style:normal;font-variant:normal;font-weight:normal;font-stretch:normal;font-family:Montserrat;-inkscape-font-specification:Montserrat;stroke-width:0.08637436"
         id="path4556"
         inkscape:connector-curvature="0" />
      <path
         d="m 103.72671,125.60562 q -0.2073,0 -0.3835,-0.0898 -0.1762,-0.0898 -0.28676,-0.25567 l 0.15201,-0.17274 q 0.20039,0.29712 0.52171,0.29712 0.44914,0 0.44914,-0.53206 v -1.46491 h -0.88447 v -0.22112 h 1.13669 v 1.67566 q 0,0.38005 -0.17966,0.57353 -0.17621,0.19002 -0.52516,0.19002 z"
         style="font-style:normal;font-variant:normal;font-weight:normal;font-stretch:normal;font-family:Montserrat;-inkscape-font-specification:Montserrat;stroke-width:0.08637436"
         id="path4558"
         inkscape:connector-curvature="0" />
      <path
         d="m 106.10703,123.16641 q 0.46296,0 0.72554,0.22112 0.26258,0.22112 0.26258,0.60807 0,0.38696 -0.26258,0.60808 -0.26258,0.21766 -0.72554,0.21766 h -0.64954 v 0.76355 h -0.25567 v -2.41848 z m -0.007,1.43036 q 0.35931,0 0.54934,-0.15547 0.19002,-0.15893 0.19002,-0.4457 0,-0.29367 -0.19002,-0.44914 -0.19003,-0.15893 -0.54934,-0.15893 h -0.64263 v 1.20924 z"
         style="font-style:normal;font-variant:normal;font-weight:normal;font-stretch:normal;font-family:Montserrat;-inkscape-font-specification:Montserrat;stroke-width:0.08637436"
         id="path4560"
         inkscape:connector-curvature="0" />
      <path
         d="m 107.65135,123.16641 h 0.25566 v 2.19736 h 1.35435 v 0.22112 h -1.61001 z"
         style="font-style:normal;font-variant:normal;font-weight:normal;font-stretch:normal;font-family:Montserrat;-inkscape-font-specification:Montserrat;stroke-width:0.08637436"
         id="path4562"
         inkscape:connector-curvature="0" />
      <path
         d="m 111.1928,124.75224 h -1.52019 q 0.0207,0.28331 0.21767,0.45952 0.19693,0.17274 0.49751,0.17274 0.1693,0 0.31095,-0.0587 0.14166,-0.0622 0.2453,-0.17966 l 0.1382,0.15893 q -0.12092,0.14511 -0.30403,0.22112 -0.17966,0.076 -0.39733,0.076 -0.27985,0 -0.49751,-0.11747 -0.21421,-0.12093 -0.33514,-0.33168 -0.12092,-0.21075 -0.12092,-0.47679 0,-0.26603 0.11402,-0.47678 0.11746,-0.21076 0.31785,-0.32822 0.20385,-0.11747 0.45606,-0.11747 0.25221,0 0.4526,0.11747 0.20039,0.11746 0.3144,0.32822 0.11402,0.2073 0.11402,0.47678 z m -0.87756,-0.78773 q -0.26258,0 -0.44224,0.16929 -0.1762,0.16584 -0.20039,0.43533 h 1.28871 q -0.0242,-0.26949 -0.20384,-0.43533 -0.17621,-0.16929 -0.44224,-0.16929 z"
         style="font-style:normal;font-variant:normal;font-weight:normal;font-stretch:normal;font-family:Montserrat;-inkscape-font-specification:Montserrat;stroke-width:0.08637436"
         id="path4564"
         inkscape:connector-curvature="0" />
      <path
         d="m 112.27729,123.75376 q 0.35586,0 0.54588,0.17965 0.19003,0.17621 0.19003,0.52516 v 1.12632 h -0.23494 v -0.28331 q -0.0829,0.14166 -0.24531,0.22112 -0.15892,0.0795 -0.38004,0.0795 -0.30404,0 -0.4837,-0.14511 -0.17966,-0.14511 -0.17966,-0.3835 0,-0.23149 0.16584,-0.37314 0.1693,-0.14166 0.53552,-0.14166 h 0.57698 v -0.11055 q 0,-0.23494 -0.13129,-0.35587 -0.13128,-0.12438 -0.3835,-0.12438 -0.17275,0 -0.33168,0.0587 -0.15892,0.0553 -0.27294,0.15547 l -0.11056,-0.18311 q 0.1382,-0.11747 0.33168,-0.17966 0.19348,-0.0656 0.40769,-0.0656 z m -0.0864,1.65493 q 0.2073,0 0.35586,-0.0933 0.14857,-0.0967 0.22112,-0.27639 v -0.29713 h -0.57007 q -0.46642,0 -0.46642,0.32477 0,0.15892 0.12092,0.25221 0.12093,0.0898 0.33859,0.0898 z"
         style="font-style:normal;font-variant:normal;font-weight:normal;font-stretch:normal;font-family:Montserrat;-inkscape-font-specification:Montserrat;stroke-width:0.08637436"
         id="path4566"
         inkscape:connector-curvature="0" />
      <path
         d="m 113.67947,123.0213 h 0.2453 v 2.56359 h -0.2453 z"
         style="font-style:normal;font-variant:normal;font-weight:normal;font-stretch:normal;font-family:Montserrat;-inkscape-font-specification:Montserrat;stroke-width:0.08637436"
         id="path4568"
         inkscape:connector-curvature="0" />
    </g>
  </g>
</svg>
